<?xml version="1.0" encoding="UTF-8"?>
<svg id="Layer_2" data-name="Layer 2" xmlns="http://www.w3.org/2000/svg" xmlns:xlink="http://www.w3.org/1999/xlink" viewBox="0 0 1742.76 417.88">
  <defs>
    <style>
      .cls-1 {
        fill: #09a1ab;
      }

      .cls-2, .cls-3 {
        fill: #455967;
      }

      .cls-4 {
        fill: url(#linear-gradient-3);
      }

      .cls-5 {
        fill: url(#linear-gradient-2);
      }

      .cls-5, .cls-3, .cls-6 {
        fill-rule: evenodd;
      }

      .cls-6 {
        fill: url(#linear-gradient);
      }
    </style>
    <linearGradient id="linear-gradient" x1="441.43" y1="337.52" x2="511.71" y2="337.52" gradientTransform="translate(0 373.91) scale(1 -1)" gradientUnits="userSpaceOnUse">
      <stop offset=".17" stop-color="#00b0b6"/>
      <stop offset=".34" stop-color="#00adb3"/>
      <stop offset=".52" stop-color="#08a1a9"/>
      <stop offset=".7" stop-color="#118d98"/>
      <stop offset=".87" stop-color="#277281"/>
      <stop offset="1" stop-color="#35596d"/>
    </linearGradient>
    <linearGradient id="linear-gradient-2" x1="93.82" y1="139.39" x2="13.55" y2="189.57" xlink:href="#linear-gradient"/>
    <linearGradient id="linear-gradient-3" x1="1121.77" y1="143.56" x2="1426.2" y2="143.56" xlink:href="#linear-gradient"/>
  </defs>
  <g id="Layer_1-2" data-name="Layer 1">
    <g id="uuid-9c0bf67f-0e93-4f4e-8fd5-97fe0ae5138a" data-name="Layer 1-2">
      <path class="cls-1" d="M351.88,349.15l30.56,22.95,26.28,21.76,13.2,15.22c.36-2.02,0-4.28-.95-6.66L243.19,6.42c-1.78-3.57-4.76-6.42-9.99-6.42h-5.83c-5.35,0-8.21,2.97-9.99,6.42L38.41,402.54c-3.57,7.61,1.19,15.34,9.99,15.34h23.55c5.35,0,8.8-3.57,9.99-6.42L227.37,84.79h4.76c20.1,44.71,82.77,185.63,118.92,267.09l.95-2.62-.12-.12Z"/>
      <path class="cls-3" d="M343.91,95.25h167.8v322.51l-38.89-283.62-128.79-38.89h-.12Z"/>
      <path class="cls-2" d="M684.86,199.19c57.79,0,103.58,49.95,103.58,108.81s-45.78,109.88-103.58,109.88-103.58-49.95-103.58-109.88,45.78-108.81,103.58-108.81ZM684.86,383.99c38.05,0,67.67-33.89,67.67-75.99s-29.73-74.44-67.67-74.44-67.67,33.3-67.67,74.44,29.73,75.99,67.67,75.99Z"/>
      <path class="cls-2" d="M847.3,219.41c0-5.23,4.64-9.87,9.87-9.87h9.87c4.64,0,7.25,2.14,8.32,6.3l4.64,16.17s29.73-27.59,72.9-27.59c60.41,0,80.75,39.6,80.75,93.71v109.88c0,5.23-4.64,9.87-9.87,9.87h-16.65c-5.23,0-9.87-4.64-9.87-9.87v-109.88c0-39.6-17.72-58.87-46.85-58.87-39.01,0-67.19,29.73-67.19,29.73v139.02c0,5.23-4.64,9.87-9.87,9.87h-16.17c-5.23,0-9.87-4.64-9.87-9.87v-188.61Z"/>
      <path class="cls-2" d="M1273.63,42.93c104.17,0,187.42,83.84,187.42,187.89s-83.24,186.94-187.42,186.94-186.94-82.77-186.94-186.94,82.77-187.89,186.94-187.89ZM1273.63,381.37c82.77,0,151.03-67.67,151.03-150.43s-68.26-151.5-151.03-151.5-150.43,68.74-150.43,151.5,67.67,150.43,150.43,150.43Z"/>
      <path class="cls-2" d="M1517.29,357.95c2.62-3.09,5.23-6.78,7.85-9.87,5.23-6.78,10.94-10.94,18.19-4.64,3.69,3.09,41.62,39.6,88,39.6,42.22,0,69.81-26.52,69.81-57.32,0-35.91-31.28-57.32-91.09-82.29-57.32-24.97-91.57-48.4-91.57-107.74,0-35.44,28.06-92.64,110.83-92.64,51.02,0,89.07,26.52,89.07,26.52,3.09,1.55,9.39,7.85,3.09,17.72-2.14,3.09-4.16,6.78-6.3,9.87-4.64,7.25-9.87,9.39-18.19,4.64-3.69-2.14-36.39-23.9-68.26-23.9-55.18,0-71.83,35.44-71.83,57.32,0,34.84,26.52,55.18,70.28,73.37,70.28,28.66,115.59,55.18,115.59,115.59,0,54.11-51.49,93.71-112.5,93.71s-103.1-35.91-109.88-42.22c-4.16-3.69-9.39-7.85-3.09-17.72h0Z"/>
      <path class="cls-3" d="M422.16,409.32S276.84,229.04,53.39,167.91l-23.43,65.52s190.39-6.42,392.2,175.88Z"/>
      <path class="cls-6" d="M476.51,1.31c-19.38,0-35.08,15.7-35.08,35.08s15.7,35.08,35.08,35.08,35.08-15.7,35.08-35.08S495.89,1.31,476.51,1.31Z"/>
      <path class="cls-5" d="M35.79,162.44c-19.74,0-35.79,16.05-35.79,35.79s16.05,35.79,35.79,35.79,35.79-16.05,35.79-35.79-16.05-35.79-35.79-35.79Z"/>
      <path class="cls-4" d="M1273.98,382.56c-83.96,0-152.22-68.26-152.22-152.22s68.26-152.22,152.22-152.22,152.22,68.26,152.22,152.22-68.26,152.22-152.22,152.22ZM1273.98,97.87c-73.14,0-132.6,59.46-132.6,132.6s59.46,132.6,132.6,132.6,132.6-59.46,132.6-132.6-59.46-132.6-132.6-132.6Z"/>
    </g>
  </g>
</svg>